<svg height="496pt" viewBox="-3 0 496 496" width="496pt" xmlns="http://www.w3.org/2000/svg"><path d="m398.96875 275.632812 33.03125-12.296874 33.03125 12.296874-.960938-36.554687 21.042969-28.621094-33.167969-10.234375-19.945312-30.46875-19.945312 30.46875-33.167969 10.234375 21.042969 28.621094zm23.3125-61.824218 9.71875-14.839844 9.71875 14.839844 17.167969 5.304687-10.957031 14.902344.484374 18.351563-16.414062-6.101563-16.414062 6.109375.484374-18.351562-10.957031-14.902344zm0 0"/><path d="m478.246094 448h-13.40625l16-160h-97.679688l16 160h-13.40625l-12 48h116.492188zm-46.246094-123.3125-20.6875-20.6875h41.375zm-29.808594-7.183594 21.808594 21.808594v52.6875h16v-52.6875l21.808594-21.808594-13.046875 130.496094h-8.761719v-40h-16v40h-8.761719zm-7.945312 162.496094 4-16h67.507812l4 16zm0 0"/><path d="m224 160c0 4.417969-3.582031 8-8 8s-8-3.582031-8-8 3.582031-8 8-8 8 3.582031 8 8zm0 0"/><path d="m144 160c0 4.417969-3.582031 8-8 8s-8-3.582031-8-8 3.582031-8 8-8 8 3.582031 8 8zm0 0"/><path d="m310.433594 302.777344-78.433594-20.929688v-14.023437c15.777344-13.046875 26.863281-31.511719 30.574219-52.496094 18.921875-3.152344 33.425781-19.527344 33.425781-39.328125v-62.734375c9.425781-8.089844 17.351562-18.082031 23.160156-29.679687l5.785156-11.585938h-24.226562c-9.871094 0-18.992188-5.359375-23.789062-14-19.875-35.777344-57.648438-58-98.578126-58-34.167968 0-66.015624 15.175781-87.535156 41.671875-21.519531 11.488281-34.816406 33.585937-34.816406 58.105469v76.222656c0 19.800781 14.503906 36.175781 33.425781 39.335938 3.710938 20.976562 14.789063 39.441406 30.574219 52.496093v14.023438l-78.433594 20.921875c-24.46875 6.519531-41.566406 28.765625-41.566406 54.09375v139.128906h352v-139.128906c0-25.328125-17.097656-47.574219-41.566406-54.09375zm-54.664063 1.976562-14.867187 89.183594-26.460938 8.816406 8.933594 35.757813-27.65625 41.488281h-9.046875l32.992187-113.121094 12.335938 4.9375v-73.402344zm-144.671875 89.183594-14.867187-89.183594 23.769531-6.339844v73.402344l12.34375-4.9375 32.992188 113.121094h-9.046876l-27.664062-41.496094 8.933594-35.761718zm59.847656-42.496094c1.628907.351563 3.320313.558594 5.054688.558594s3.425781-.207031 5.054688-.558594l23.679687 9.460938-28.734375 98.523437-28.734375-98.523437zm45.054688-3.257812-19.535156-7.816406c2.199218-3.625 3.535156-7.824219 3.535156-12.367188 0-4.535156-1.335938-8.742188-3.535156-12.367188l19.535156-7.816406zm-32-20.183594c0 4.414062-3.59375 8-8 8s-8-3.585938-8-8 3.59375-8 8-8 8 3.585938 8 8zm-28.464844 12.367188-19.535156 7.816406v-40.367188l19.535156 7.816406c-2.199218 3.625-3.535156 7.832032-3.535156 12.367188 0 4.542969 1.335938 8.742188 3.535156 12.367188zm108.464844-141.839844v-45.046875c9.289062 3.3125 16 12.113281 16 22.527343 0 10.417969-6.710938 19.207032-16 22.519532zm16-54.320313c-4.671875-3.535156-10.054688-6.183593-16-7.390625v-5.558594c5.558594-1.816406 10.910156-4.121093 16-6.914062zm-180.425781-89.046875 1.578125-.792968 1.640625-2.046876c18.464843-23.082031 46.007812-36.320312 75.558593-36.320312 35.121094 0 67.527344 19.070312 84.59375 49.777344 7.152344 12.863281 20.335938 21.160156 34.902344 22.132812-14.6875 20.066406-38.007812 32.089844-63.511718 32.089844-11.511719 0-23.015626-1.414062-34.175782-4.207031l-10.335937-2.585938c-4.230469-10.09375-14.214844-17.207031-25.824219-17.207031h-4v16h4c6.617188 0 12 5.382812 12 12 0 3.207031-1.246094 6.222656-3.511719 8.488281s-5.289062 3.511719-8.488281 3.511719h-1.847656c-6.074219 0-12.152344-.742188-18.054688-2.222656-13.089844-3.273438-25.050781-10.042969-34.585937-19.585938l-5.511719-5.503906v-4.6875h-16v32.808594c-5.945312 1.214844-11.328125 3.855468-16 7.390625v-44.421875c0-19.015625 10.566406-36.113282 27.574219-44.617188zm-27.574219 120.839844c0-10.414062 6.710938-19.214844 16-22.527344v45.046875c-9.289062-3.304687-16-12.105469-16-22.519531zm32 24v-69.425781c10.511719 8.859375 22.816406 15.378906 36.214844 18.730469 7.167968 1.792968 14.554687 2.695312 21.9375 2.695312h1.847656c7.480469 0 14.511719-2.910156 19.808594-8.199219 3.816406-3.824219 6.351562-8.578125 7.488281-13.730469l4.984375 1.25c12.421875 3.105469 25.230469 4.679688 38.054688 4.679688 4.625 0 9.183593-.335938 13.664062-.976562v64.976562c0 39.695312-32.304688 72-72 72s-72-32.304688-72-72zm72 88c14.40625 0 27.984375-3.550781 40-9.710938v12.296876l-34.945312 13.972656c-1.628907-.351563-3.320313-.558594-5.054688-.558594s-3.425781.207031-5.054688.558594l-34.945312-13.972656v-12.296876c12.015625 6.160157 25.59375 9.710938 40 9.710938zm-160 68.871094c0-18.09375 12.207031-33.984375 29.695312-38.648438l35.007813-9.335937 16.199219 97.167969 21.539062 7.183593-7.066406 28.242188 25.671875 38.519531h-57.046875v-104h-16v104h-48zm320 123.128906h-48v-104h-16v104h-57.046875l25.671875-38.503906-7.066406-28.238282 21.539062-7.1875 16.199219-97.167968 35.007813 9.335937c17.488281 4.648438 29.695312 20.546875 29.695312 38.632813zm0 0"/><path d="m176 248c22.054688 0 40-17.945312 40-40h-16c0 13.230469-10.769531 24-24 24s-24-10.769531-24-24h-16c0 22.054688 17.945312 40 40 40zm0 0"/></svg>