<svg id="Capa_1" enable-background="new 0 0 512.139 512.139" height="512" viewBox="0 0 512.139 512.139" width="512" xmlns="http://www.w3.org/2000/svg"><path d="m294.003 79.674c-.882-2.715-3.229-4.694-6.054-5.104l-17.381-2.525-7.772-15.75c-2.663-5.396-10.762-5.448-13.451 0l-7.772 15.75-17.381 2.525c-5.867.852-8.505 8.553-4.157 12.792l12.577 12.259-2.969 17.311c-1.031 6.014 5.481 10.744 10.882 7.906l15.546-8.173 15.546 8.173c5.375 2.825 11.914-1.889 10.882-7.906l-2.969-17.311 12.577-12.259c2.042-1.992 2.778-4.972 1.896-7.688zm-27.768 11.959c-1.768 1.723-2.574 4.206-2.157 6.638l1.066 6.219-5.585-2.936c-1.092-.574-2.291-.861-3.49-.861s-2.397.287-3.49.861l-5.585 2.936 1.066-6.219c.417-2.433-.389-4.915-2.157-6.638l-4.518-4.404 6.244-.907c2.443-.355 4.555-1.889 5.647-4.103l2.792-5.658 2.792 5.658c1.092 2.213 3.204 3.748 5.647 4.103l6.244.907z"/><path d="m490.358 129.608h-43.599v-122.108c0-4.142-3.358-7.5-7.5-7.5h-30.617c-4.142 0-7.5 3.358-7.5 7.5v13.421h-290.145v-13.421c0-4.142-3.358-7.5-7.5-7.5h-30.617c-4.142 0-7.5 3.358-7.5 7.5v28.5c0 9.674 15 9.674 15 0v-21h15.617v114.608h-15.617v-49.608c0-9.674-15-9.674-15 0v49.608h-43.599c-4.142 0-7.5 3.358-7.5 7.5v32.657c0 4.142 3.358 7.5 7.5 7.5h43.599v62.561h-7.043c-4.142 0-7.5 3.358-7.5 7.5v32.636c0 2.334 1.161 4.658 3.036 6.047l163.95 121.443-85.726 63.407c-23.587 17.435 3.454 54.181 27.123 36.663l96.849-71.74 96.852 71.741c23.603 17.468 50.772-19.182 27.123-36.663l-85.728-63.408 68.718-50.902c7.773-5.759-1.154-17.811-8.929-12.054l-203.812 150.97c-8.099 5.996-17.372-6.564-9.278-12.547l264.231-195.438h25.83l-40.971 30.349c-7.773 5.759 1.155 17.813 8.929 12.054l59.232-43.875c1.888-1.4 3.036-3.691 3.036-6.047v-32.636c0-4.142-3.358-7.5-7.5-7.5h-7.043v-62.561h43.599c4.142 0 7.5-3.358 7.5-7.5v-32.657c0-4.142-3.358-7.5-7.5-7.5zm-119.232 353.314c8.091 5.981-1.182 18.541-9.278 12.547l-93.178-69.02 13.043-9.661zm111.732-320.657h-66.716v-17.657h66.716zm-226.788 216.898-105.225-77.829c31.48 10.408 67.835 15.982 105.735 15.982 37.172 0 72.854-5.363 103.912-15.389zm-190.233-124.337h44.703v17.657h-1.175-43.528zm-36.556-110.218h66.716v17.657h-66.716zm365.244 95.218c-1.849-.028-3.559.44-5.032 1.59-48.192 24.833-118.432 34.362-183.844 24.855-9.574-1.39-11.731 13.452-2.157 14.844 17.385 2.527 35.103 3.757 52.716 3.757 47.311 0 93.778-8.888 130.392-25.401v15.834c-73.253 36.219-188.193 36.053-261.06-.503v-15.786c10.799 4.953 22.504 9.271 34.939 12.88 9.225 2.677 13.241-11.776 4.181-14.405-15.529-4.507-29.802-10.16-42.422-16.802-1.368-.521-2.768-.808-4.198-.863h-7.043v-81.44h290.146v81.44zm37.234-224.826v114.608h-15.182l-.435-114.608zm-320.177 20.921h289.56v101.187 6.277h-289.56zm-31.202 141.344h15.617v62.561h-15.617zm.683 110.217h25.83l136.565 101.01-13.024 9.634zm320.536-15v-17.657h44.703v17.657zm30.16-32.656h-15.617v-62.561h15.617z"/></svg>